inDegrees=no
num_controls=7
num_derivatives=13
num_iterations=119
num_multipliers=7
num_parameters=0
num_slacks=7
num_states=26
objective=0.543199
objective_accelerations=0.061434
objective_balance=0.003324
objective_effort=0.046851
objective_height=0.422383
objective_ligament=0.009207
solver_duration=1261.597264
status=Solve_Succeeded
success=true
DataType=double
version=3
OpenSimVersion=4.5
endheader
time	/jointset/ground_pelvis/pelvis_tilt/value	/jointset/ground_pelvis/pelvis_tx/value	/jointset/ground_pelvis/pelvis_ty/value	/jointset/hip_r/hip_flexion_r/value	/jointset/hip_r/hip_adduction_r/value	/jointset/hip_r/hip_rotation_r/value	/jointset/back/lumbar_extension/value	/jointset/patellofemoral_r/patellar_flexion_r/value	/jointset/knee_r/knee_flexion_r/value	/jointset/knee_r/knee_adduction_r/value	/jointset/knee_r/knee_rotation_r/value	/jointset/ankle_r/ankle_angle_r/value	/jointset/subtalar_r/subtalar_angle_r/value	/jointset/ground_pelvis/pelvis_tilt/speed	/jointset/ground_pelvis/pelvis_tx/speed	/jointset/ground_pelvis/pelvis_ty/speed	/jointset/hip_r/hip_flexion_r/speed	/jointset/hip_r/hip_adduction_r/speed	/jointset/hip_r/hip_rotation_r/speed	/jointset/back/lumbar_extension/speed	/jointset/patellofemoral_r/patellar_flexion_r/speed	/jointset/knee_r/knee_flexion_r/speed	/jointset/knee_r/knee_adduction_r/speed	/jointset/knee_r/knee_rotation_r/speed	/jointset/ankle_r/ankle_angle_r/speed	/jointset/subtalar_r/subtalar_angle_r/speed	/forceset/tau_hip_flexion_r	/forceset/tau_hip_adduction_r	/forceset/tau_hip_rotation_r	/forceset/tau_knee_flexion_r	/forceset/tau_ankle_angle_r	/forceset/tau_subtalar_angle_r	/forceset/tau_lumbar_extension	lambda_cid13_p0	lambda_cid14_p0	lambda_cid14_p1	lambda_cid14_p2	lambda_cid14_p3	lambda_cid14_p4	lambda_cid14_p5	/jointset/ground_pelvis/pelvis_tilt/accel	/jointset/ground_pelvis/pelvis_tx/accel	/jointset/ground_pelvis/pelvis_ty/accel	/jointset/hip_r/hip_flexion_r/accel	/jointset/hip_r/hip_adduction_r/accel	/jointset/hip_r/hip_rotation_r/accel	/jointset/back/lumbar_extension/accel	/jointset/patellofemoral_r/patellar_flexion_r/accel	/jointset/knee_r/knee_flexion_r/accel	/jointset/knee_r/knee_adduction_r/accel	/jointset/knee_r/knee_rotation_r/accel	/jointset/ankle_r/ankle_angle_r/accel	/jointset/subtalar_r/subtalar_angle_r/accel	gamma_cid13_p0	gamma_cid14_p0	gamma_cid14_p1	gamma_cid14_p2	gamma_cid14_p3	gamma_cid14_p4	gamma_cid14_p5
0.5	-0.1958488398072054	0.006704235665493667	0.8088160882604554	0.9803294333032293	-0.2230597500975972	-0.1180180567439052	-0.3388697453920481	0.8796852971180068	0.8796852971184143	-0.01308992112196812	0.1745150157173931	0.2769738258541042	0.06995923109860086	-0.5069658468259689	-0.1737091829766292	-0.560727603299911	2.189721612623089	0.001720657199857653	0.2214679997356047	-0.5987985524259366	2.191420780100112	2.191420780100113	-0.4350621107535487	8.65375267923194e-05	0.6185710324852851	0.1903481879464647	-0.1393227396389031	-0.01732476804956664	0.0127632542205684	-0.3638486986193601	0.0946907551775132	-0.005382595609664144	0.1782590561746839	-20.13040408718493	-10.59674592931942	-1.825399398459075	-1.953467891432652	-2.288940376034926	-654.8427914089532	59.58043237184015	0.4522526665635256	0.5956561539819932	-0.5836599329134089	-1.336013952631377	-0.1715970509779943	-0.8371636273007366	1.76140153557714	-1.450011878220717	-1.450011878220528	0.3498240087561219	-0.0415935139273472	-0.7485456302829712	-0.2682459726199765	-1.60998440200811e-07	-2.209485436994812e-08	2.275617481678181e-06	-2.777359985256674e-08	-2.462426027818145e-07	-1.735997387912498e-07	1.287497201499698e-06
0.51	-0.2008947511818616	0.004997200803839297	0.8031810011496916	1.002156185899446	-0.223051880112173	-0.1158467976480469	-0.3447690934565881	0.9015236781591408	0.901523678159174	-0.01742250555786191	0.1745159901437033	0.283120974923227	0.07184783246918988	-0.5021361659380156	-0.1676736659727906	-0.5661552847770275	2.175318427339008	-0.0001512304188672132	0.2127840479535789	-0.5809804119294815	2.175947811069792	2.175947811069797	-0.4314324990264619	0.0001155666340414026	0.6107741813069704	0.1873260956574711	-0.1468793545193942	-0.01520911893261002	0.01277418623709878	-0.3680501524279517	0.09186033225127309	-0.004597629462004022	0.1850123032002979	-18.67904326267072	-11.79622141083812	-1.865927568917546	-1.751204578625956	-1.894920026264956	-660.7263288417498	59.4607159109689	0.5103596334373622	0.6110752398615527	-0.5021806686382241	-1.539049561520775	-0.1955508640822948	-0.8841876122376384	1.805617589598757	-1.6420505097395	-1.642050509738859	0.3731674707694499	0.02623011095333387	-0.8080088166743573	-0.3257799323429779	-1.554203836695485e-07	-5.445391595197165e-08	1.979514624325609e-06	-3.237183535397055e-07	-1.906808052229306e-07	-1.963710530387709e-07	1.172319289142146e-06
0.52	-0.2058899589809326	0.003351236265478663	0.7974956655414511	1.023829590893778	-0.2230628422522871	-0.1137624134017295	-0.3504875406595795	0.9231981072911086	0.9231981072907735	-0.02171806633327323	0.1745174706586649	0.289187604689553	0.07370489510182816	-0.4968251317090148	-0.161495118317882	-0.5707773027952326	2.159052092245954	-0.00204576790809009	0.2040930298281864	-0.5626183801162626	2.158630398267402	2.158630398267412	-0.4276573786559936	0.0001877552573819481	0.6024671719259109	0.1840404403563199	-0.1544359693998812	-0.01309346981566793	0.01278511825372165	-0.3722516062365392	0.08902990932502793	-0.003812663314368976	0.1917655502259174	-17.23399900823251	-12.99879883255036	-1.904937165731567	-1.551537752300061	-1.511143877478278	-666.66015319653	59.3910413344349	0.5485233347730528	0.6242622841959876	-0.4225272411311581	-1.708643914426168	-0.1761270250775715	-0.8385768959740099	1.870179798929868	-1.818900632634509	-1.81890063263463	0.3789257374323773	-0.03296161070909938	-0.8505772708318696	-0.3209585750514918	-1.515801939568854e-07	-8.146840207279729e-08	1.710057485234846e-06	-5.745834148643328e-07	-1.441631743756109e-07	-2.03940526115995e-07	1.039716311297179e-06
0.53	-0.2108297642907697	0.001767640948948006	0.7917681697167419	1.045331309995039	-0.2230928355819426	-0.1117641470232205	-0.3560199577058354	0.9446903325583594	0.9446903325582197	-0.02597464465888491	0.1745193693290555	0.2951686184913601	0.07552776016185356	-0.4910651457035408	-0.1552124475392732	-0.5745836470728266	2.141003968414337	-0.003948178766714746	0.1955501170861534	-0.5438056517786308	2.139518252946748	2.139518252946814	-0.4236565195098666	0.0002010451479493645	0.5936519996894095	0.1804970950991623	-0.1617445803023034	-0.01109203259886558	0.01276396069771166	-0.3766094229020602	0.08621174855789591	-0.003129602866320566	0.1982514130763543	-15.79871285267311	-14.21119363841655	-1.99805808659231	-1.333952581991487	-1.007814144206776	-672.6271396055944	59.26569616175588	0.6003433129860151	0.6319701460961314	-0.3389973432832329	-1.896073869628381	-0.1965927999587391	-0.8638966566673214	1.895725954651506	-2.001801904612315	-2.001801904603928	0.4111419201734682	0.01972639366429337	-0.9095723187358598	-0.3761801600179089	-1.481484204210178e-07	-1.078469204256045e-07	1.439741423059038e-06	-8.157160402255486e-07	-9.875010903663156e-08	-2.078926391825364e-07	8.899346673263487e-07
